<svg id="Layer_1" data-name="Layer 1" xmlns="http://www.w3.org/2000/svg" viewBox="0 0 576 576"><defs><style>.cls-1{fill:#dc3e26;}</style></defs><path class="cls-1" d="M576,268c-2,170.3-132.5,308.5-289,308C132.5,575.5,3.8,439.7,0,271.6c26,24,130.5,80.1,288,79.4C446.3,350.3,550.4,292.2,576,268Z" transform="translate(0 0)"/><path class="cls-1" d="M138.06,147.88V369.67C152.24,381.13,207,422.47,288.81,422c81-.48,135-41.73,149.13-53.28V147.88" transform="translate(0 0)"/><path class="cls-1" d="M277.68,3.35,93.23,139.67C81,148.7,87.9,167,103.54,167H472.45c15.65,0,22.55-18.26,10.32-27.3L298.32,3.35A17.56,17.56,0,0,0,277.68,3.35Z" transform="translate(0 0)"/></svg>